STARTFONT 2.1
FONT -Bitwi.se-IBMPCP-Medium-R-Normal--10-100-75-75-C-60-ascii-0
SIZE 10 75 75
FONTBOUNDINGBOX 5 10 0 0
STARTPROPERTIES 24
FONT_ASCENT 10
FONT_DESCENT 0
DEFAULT_CHAR 0
FONTNAME_REGISTRY ""
FOUNDRY "Bitwi.se"
FAMILY_NAME "IBMPCP"
WEIGHT_NAME "Medium"
SLANT "R"
SETWIDTH_NAME "Normal"
PIXEL_SIZE 10
POINT_SIZE 100
RESOLUTION_X 75
RESOLUTION_Y 75
SPACING "C"
CHARSET_REGISTRY "ISO8859"
CHARSET_ENCODING 1
COPYRIGHT "Nikolai Weibull <nikolai@bitwi.se>"
ADD_STYLE_NAME ""
WEIGHT 10
RESOLUTION 103
AVERAGE_WIDTH 60
QUAD_WIDTH 5
X_HEIGHT 10
ENDPROPERTIES
CHARS 256
STARTCHAR 0
ENCODING 0
SWIDTH 480 0
DWIDTH 5 0
BBX 0 0 0 0
BITMAP
ENDCHAR
STARTCHAR 1
ENCODING 1
SWIDTH 480 0
DWIDTH 5 0
BBX 5 8 0 1
BITMAP
70
88
d8
88
f8
f8
88
70
ENDCHAR
STARTCHAR 2
ENCODING 2
SWIDTH 480 0
DWIDTH 5 0
BBX 5 8 0 1
BITMAP
70
f8
a8
f8
88
88
f8
70
ENDCHAR
STARTCHAR 3
ENCODING 3
SWIDTH 480 0
DWIDTH 5 0
BBX 5 5 0 2
BITMAP
50
f8
f8
70
20
ENDCHAR
STARTCHAR 4
ENCODING 4
SWIDTH 480 0
DWIDTH 5 0
BBX 5 5 0 2
BITMAP
20
70
F8
70
20
ENDCHAR
STARTCHAR 5
ENCODING 5
SWIDTH 480 0
DWIDTH 5 0
BBX 5 7 0 2
BITMAP
70
70
a8
f8
a8
20
70
ENDCHAR
STARTCHAR 6
ENCODING 6
SWIDTH 480 0
DWIDTH 5 0
BBX 5 7 0 2
BITMAP
20
70
f8
f8
a8
20
70
ENDCHAR
STARTCHAR 7
ENCODING 7
SWIDTH 480 0
DWIDTH 5 0
BBX 3 5 0 2
BITMAP
40
40
e0
40
40
ENDCHAR
STARTCHAR 8
ENCODING 8
SWIDTH 480 0
DWIDTH 5 0
BBX 4 8 0 0
BITMAP
f0
f0
90
90
f0
f0
f0
f0
ENDCHAR
STARTCHAR 9
ENCODING 9
SWIDTH 480 0
DWIDTH 5 0
BBX 4 4 0 1
BITMAP
60
90
90
60
ENDCHAR
STARTCHAR 10
ENCODING 10
SWIDTH 480 0
DWIDTH 5 0
BBX 4 8 0 0
BITMAP
f0
f0
90
90
f0
f0
f0
f0
ENDCHAR
STARTCHAR 11
ENCODING 11
SWIDTH 480 0
DWIDTH 5 0
BBX 4 5 0 0
BITMAP
70
30
10
c0
c0
ENDCHAR
STARTCHAR 12
ENCODING 12
SWIDTH 480 0
DWIDTH 5 0
BBX 3 7 0 0
BITMAP
40
a0
a0
40
40
e0
40
ENDCHAR
STARTCHAR 13
ENCODING 13
SWIDTH 480 0
DWIDTH 5 0
BBX 4 7 0 0
BITMAP
30
20
20
20
e0
e0
e0
ENDCHAR
STARTCHAR 14
ENCODING 14
SWIDTH 480 0
DWIDTH 5 0
BBX 4 6 0 0
BITMAP
70
50
50
50
50
a0
ENDCHAR
STARTCHAR 15
ENCODING 15
SWIDTH 480 0
DWIDTH 5 0
BBX 4 5 0 1
BITMAP
90
60
f0
60
90
ENDCHAR
STARTCHAR 16
ENCODING 16
SWIDTH 480 0
DWIDTH 5 0
BBX 3 5 0 2
BITMAP
80
c0
e0
c0
80
ENDCHAR
STARTCHAR 17
ENCODING 17
SWIDTH 480 0
DWIDTH 5 0
BBX 3 5 1 2
BITMAP
20
60
e0
60
20
ENDCHAR
STARTCHAR 18
ENCODING 18
SWIDTH 480 0
DWIDTH 5 0
BBX 3 7 0 2
BITMAP
40
e0
40
40
40
e0
40
ENDCHAR
STARTCHAR 19
ENCODING 19
SWIDTH 480 0
DWIDTH 5 0
BBX 3 7 0 1
BITMAP
a0
a0
a0
a0
a0
00
a0
ENDCHAR
STARTCHAR 20
ENCODING 20
SWIDTH 480 0
DWIDTH 5 0
BBX 4 6 0 2
BITMAP
f0
d0
50
50
50
50
ENDCHAR
STARTCHAR 21
ENCODING 21
SWIDTH 480 0
DWIDTH 5 0
BBX 4 7 0 2
BITMAP
70
90
60
90
60
90
e0
ENDCHAR
STARTCHAR 22
ENCODING 22
SWIDTH 480 0
DWIDTH 5 0
BBX 4 2 0 2
BITMAP
f0
f0
ENDCHAR
STARTCHAR 23
ENCODING 23
SWIDTH 480 0
DWIDTH 5 0
BBX 3 7 0 2
BITMAP
40
e0
40
40
e0
40
e0
ENDCHAR
STARTCHAR 24
ENCODING 24
SWIDTH 480 0
DWIDTH 5 0
BBX 3 7 0 2
BITMAP
40
e0
40
40
40
40
40
ENDCHAR
STARTCHAR 25
ENCODING 25
SWIDTH 480 0
DWIDTH 5 0
BBX 3 7 0 2
BITMAP
40
40
40
40
40
e0
40
ENDCHAR
STARTCHAR 26
ENCODING 26
SWIDTH 480 0
DWIDTH 5 0
BBX 5 3 0 3
BITMAP
10
f8
10
ENDCHAR
STARTCHAR 27
ENCODING 27
SWIDTH 480 0
DWIDTH 5 0
BBX 5 3 0 3
BITMAP
40
f8
40
ENDCHAR
STARTCHAR 28
ENCODING 28
SWIDTH 480 0
DWIDTH 5 0
BBX 4 3 0 3
BITMAP
80
80
f0
ENDCHAR
STARTCHAR 29
ENCODING 29
SWIDTH 480 0
DWIDTH 5 0
BBX 5 3 0 3
BITMAP
50
f8
50
ENDCHAR
STARTCHAR 30
ENCODING 30
SWIDTH 480 0
DWIDTH 5 0
BBX 5 3 0 3
BITMAP
20
70
f8
ENDCHAR
STARTCHAR 31
ENCODING 31
SWIDTH 480 0
DWIDTH 5 0
BBX 5 3 0 3
BITMAP
f8
70
20
ENDCHAR
STARTCHAR 32
ENCODING 32
SWIDTH 480 0
DWIDTH 5 0
BBX 0 0 0 0
BITMAP
ENDCHAR
STARTCHAR 33
ENCODING 33
SWIDTH 480 0
DWIDTH 5 0
BBX 1 7 1 1
BITMAP
80
80
80
80
00
80
80
ENDCHAR
STARTCHAR 34
ENCODING 34
SWIDTH 480 0
DWIDTH 5 0
BBX 3 2 1 6
BITMAP
a0
a0
ENDCHAR
STARTCHAR 35
ENCODING 35
SWIDTH 480 0
DWIDTH 5 0
BBX 5 7 0 1
BITMAP
50
50
f8
50
f8
50
50
ENDCHAR
STARTCHAR 36
ENCODING 36
SWIDTH 480 0
DWIDTH 5 0
BBX 5 9 0 0
BITMAP
20
70
a8
a0
70
28
a8
70
20
ENDCHAR
STARTCHAR 37
ENCODING 37
SWIDTH 480 0
DWIDTH 5 0
BBX 4 6 0 1
BITMAP
c0
d0
20
40
b0
30
ENDCHAR
STARTCHAR 38
ENCODING 38
SWIDTH 480 0
DWIDTH 5 0
BBX 4 7 0 1
BITMAP
40
A0
A0
40
B0
A0
70
ENDCHAR
STARTCHAR 39
ENCODING 39
SWIDTH 480 0
DWIDTH 5 0
BBX 2 2 1 6
BITMAP
40
80
ENDCHAR
STARTCHAR 40
ENCODING 40
SWIDTH 480 0
DWIDTH 5 0
BBX 2 9 1 0
BITMAP
40
40
80
80
80
80
80
40
40
ENDCHAR
STARTCHAR 41
ENCODING 41
SWIDTH 480 0
DWIDTH 5 0
BBX 2 9 1 0
BITMAP
80
80
40
40
40
40
40
80
80
ENDCHAR
STARTCHAR 42
ENCODING 42
SWIDTH 480 0
DWIDTH 5 0
BBX 4 5 0 2
BITMAP
90
60
F0
60
90
ENDCHAR
STARTCHAR 43
ENCODING 43
SWIDTH 480 0
DWIDTH 5 0
BBX 5 5 0 2
BITMAP
20
20
f8
20
20
ENDCHAR
STARTCHAR 44
ENCODING 44
SWIDTH 480 0
DWIDTH 5 0
BBX 2 3 0 0
BITMAP
40
40
80
ENDCHAR
STARTCHAR 45
ENCODING 45
SWIDTH 480 0
DWIDTH 5 0
BBX 4 1 0 4
BITMAP
F0
ENDCHAR
STARTCHAR 46
ENCODING 46
SWIDTH 480 0
DWIDTH 5 0
BBX 1 2 1 1
BITMAP
80
80
ENDCHAR
STARTCHAR 47
ENCODING 47
SWIDTH 480 0
DWIDTH 5 0
BBX 4 8 0 1
BITMAP
10
10
20
20
40
40
80
80
ENDCHAR
STARTCHAR 48
ENCODING 48
SWIDTH 480 0
DWIDTH 5 0
BBX 4 7 0 1
BITMAP
60
90
b0
d0
90
90
60
ENDCHAR
STARTCHAR 49
ENCODING 49
SWIDTH 480 0
DWIDTH 5 0
BBX 2 7 1 1
BITMAP
40
c0
40
40
40
40
40
ENDCHAR
STARTCHAR 50
ENCODING 50
SWIDTH 480 0
DWIDTH 5 0
BBX 4 7 0 1
BITMAP
60
90
10
20
40
80
f0
ENDCHAR
STARTCHAR 51
ENCODING 51
SWIDTH 480 0
DWIDTH 5 0
BBX 4 7 0 1
BITMAP
60
90
10
60
10
90
60
ENDCHAR
STARTCHAR 52
ENCODING 52
SWIDTH 480 0
DWIDTH 5 0
BBX 4 7 0 1
BITMAP
90
90
90
f0
10
10
10
ENDCHAR
STARTCHAR 53
ENCODING 53
SWIDTH 480 0
DWIDTH 5 0
BBX 4 7 0 1
BITMAP
f0
80
e0
10
10
90
60
ENDCHAR
STARTCHAR 54
ENCODING 54
SWIDTH 480 0
DWIDTH 5 0
BBX 4 7 0 1
BITMAP
60
90
80
e0
90
90
60
ENDCHAR
STARTCHAR 55
ENCODING 55
SWIDTH 480 0
DWIDTH 5 0
BBX 4 7 0 1
BITMAP
f0
10
20
20
40
40
40
ENDCHAR
STARTCHAR 56
ENCODING 56
SWIDTH 480 0
DWIDTH 5 0
BBX 4 7 0 1
BITMAP
60
90
90
60
90
90
60
ENDCHAR
STARTCHAR 57
ENCODING 57
SWIDTH 480 0
DWIDTH 5 0
BBX 4 7 0 1
BITMAP
60
90
90
70
10
90
60
ENDCHAR
STARTCHAR 58
ENCODING 58
SWIDTH 480 0
DWIDTH 5 0
BBX 1 5 1 1
BITMAP
80
80
00
80
80
ENDCHAR
STARTCHAR 59
ENCODING 59
SWIDTH 480 0
DWIDTH 5 0
BBX 2 6 0 0
BITMAP
40
40
00
40
40
80
ENDCHAR
STARTCHAR 60
ENCODING 60
SWIDTH 480 0
DWIDTH 5 0
BBX 4 7 0 1
BITMAP
10
20
40
80
40
20
10
ENDCHAR
STARTCHAR 61
ENCODING 61
SWIDTH 480 0
DWIDTH 5 0
BBX 4 3 0 3
BITMAP
F0
00
F0
ENDCHAR
STARTCHAR 62
ENCODING 62
SWIDTH 480 0
DWIDTH 5 0
BBX 4 7 0 1
BITMAP
80
40
20
10
20
40
80
ENDCHAR
STARTCHAR 63
ENCODING 63
SWIDTH 480 0
DWIDTH 5 0
BBX 4 7 0 1
BITMAP
e0
10
10
60
40
00
40
ENDCHAR
STARTCHAR 64
ENCODING 64
SWIDTH 480 0
DWIDTH 5 0
BBX 4 7 0 1
BITMAP
60
90
d0
d0
10
90
60
ENDCHAR
STARTCHAR 65
ENCODING 65
SWIDTH 480 0
DWIDTH 5 0
BBX 4 7 0 1
BITMAP
60
90
90
f0
90
90
90
ENDCHAR
STARTCHAR 66
ENCODING 66
SWIDTH 480 0
DWIDTH 5 0
BBX 4 7 0 1
BITMAP
e0
90
90
e0
90
90
e0
ENDCHAR
STARTCHAR 67
ENCODING 67
SWIDTH 480 0
DWIDTH 5 0
BBX 4 7 0 1
BITMAP
70
80
80
80
80
80
70
ENDCHAR
STARTCHAR 68
ENCODING 68
SWIDTH 480 0
DWIDTH 5 0
BBX 4 7 0 1
BITMAP
e0
90
90
90
90
90
e0
ENDCHAR
STARTCHAR 69
ENCODING 69
SWIDTH 480 0
DWIDTH 5 0
BBX 4 7 0 1
BITMAP
f0
80
80
e0
80
80
f0
ENDCHAR
STARTCHAR 70
ENCODING 70
SWIDTH 480 0
DWIDTH 5 0
BBX 4 7 0 1
BITMAP
f0
80
80
e0
80
80
80
ENDCHAR
STARTCHAR 71
ENCODING 71
SWIDTH 480 0
DWIDTH 5 0
BBX 4 7 0 1
BITMAP
60
90
80
b0
90
90
60
ENDCHAR
STARTCHAR 72
ENCODING 72
SWIDTH 480 0
DWIDTH 5 0
BBX 4 7 0 1
BITMAP
90
90
90
f0
90
90
90
ENDCHAR
STARTCHAR 73
ENCODING 73
SWIDTH 480 0
DWIDTH 5 0
BBX 3 7 1 1
BITMAP
e0
40
40
40
40
40
e0
ENDCHAR
STARTCHAR 74
ENCODING 74
SWIDTH 480 0
DWIDTH 5 0
BBX 4 7 0 1
BITMAP
10
10
10
10
10
90
60
ENDCHAR
STARTCHAR 75
ENCODING 75
SWIDTH 480 0
DWIDTH 5 0
BBX 4 7 0 1
BITMAP
90
90
a0
c0
a0
90
90
ENDCHAR
STARTCHAR 76
ENCODING 76
SWIDTH 480 0
DWIDTH 5 0
BBX 4 7 0 1
BITMAP
80
80
80
80
80
80
f0
ENDCHAR
STARTCHAR 77
ENCODING 77
SWIDTH 480 0
DWIDTH 5 0
BBX 4 7 0 1
BITMAP
90
f0
d0
90
90
90
90
ENDCHAR
STARTCHAR 78
ENCODING 78
SWIDTH 480 0
DWIDTH 5 0
BBX 4 7 0 1
BITMAP
90
d0
d0
b0
b0
90
90
ENDCHAR
STARTCHAR 79
ENCODING 79
SWIDTH 480 0
DWIDTH 5 0
BBX 4 7 0 1
BITMAP
60
90
90
90
90
90
60
ENDCHAR
STARTCHAR 80
ENCODING 80
SWIDTH 480 0
DWIDTH 5 0
BBX 4 7 0 1
BITMAP
e0
90
90
e0
80
80
80
ENDCHAR
STARTCHAR 81
ENCODING 81
SWIDTH 480 0
DWIDTH 5 0
BBX 5 8 0 0
BITMAP
60
90
90
90
90
b0
70
08
ENDCHAR
STARTCHAR 82
ENCODING 82
SWIDTH 480 0
DWIDTH 5 0
BBX 4 7 0 1
BITMAP
e0
90
90
e0
a0
90
90
ENDCHAR
STARTCHAR 83
ENCODING 83
SWIDTH 480 0
DWIDTH 5 0
BBX 4 7 0 1
BITMAP
60
90
80
60
10
90
60
ENDCHAR
STARTCHAR 84
ENCODING 84
SWIDTH 480 0
DWIDTH 5 0
BBX 5 7 0 1
BITMAP
f8
20
20
20
20
20
20
ENDCHAR
STARTCHAR 85
ENCODING 85
SWIDTH 480 0
DWIDTH 5 0
BBX 4 7 0 1
BITMAP
90
90
90
90
90
90
60
ENDCHAR
STARTCHAR 86
ENCODING 86
SWIDTH 480 0
DWIDTH 5 0
BBX 4 7 0 1
BITMAP
90
90
90
90
a0
c0
80
ENDCHAR
STARTCHAR 87
ENCODING 87
SWIDTH 480 0
DWIDTH 5 0
BBX 4 7 0 1
BITMAP
90
90
90
d0
f0
f0
90
ENDCHAR
STARTCHAR 88
ENCODING 88
SWIDTH 480 0
DWIDTH 5 0
BBX 4 7 0 1
BITMAP
90
90
60
60
90
90
90
ENDCHAR
STARTCHAR 89
ENCODING 89
SWIDTH 480 0
DWIDTH 5 0
BBX 4 7 0 1
BITMAP
90
90
90
60
40
40
40
ENDCHAR
STARTCHAR 90
ENCODING 90
SWIDTH 480 0
DWIDTH 5 0
BBX 4 7 0 1
BITMAP
f0
10
20
40
80
80
f0
ENDCHAR
STARTCHAR 91
ENCODING 91
SWIDTH 480 0
DWIDTH 5 0
BBX 3 9 1 0
BITMAP
e0
80
80
80
80
80
80
80
e0
ENDCHAR
STARTCHAR 92
ENCODING 92
SWIDTH 480 0
DWIDTH 5 0
BBX 4 8 0 1
BITMAP
80
80
40
40
20
20
10
10
ENDCHAR
STARTCHAR 93
ENCODING 93
SWIDTH 480 0
DWIDTH 5 0
BBX 3 9 1 0
BITMAP
e0
20
20
20
20
20
20
20
e0
ENDCHAR
STARTCHAR 94
ENCODING 94
SWIDTH 480 0
DWIDTH 5 0
BBX 3 2 1 6
BITMAP
40
a0
ENDCHAR
STARTCHAR 95
ENCODING 95
SWIDTH 480 0
DWIDTH 5 0
BBX 5 1 0 0
BITMAP
F8
ENDCHAR
STARTCHAR 96
ENCODING 96
SWIDTH 480 0
DWIDTH 5 0
BBX 2 2 1 6
BITMAP
80
40
ENDCHAR
STARTCHAR 97
ENCODING 97
SWIDTH 480 0
DWIDTH 5 0
BBX 4 5 0 1
BITMAP
60
10
70
90
70
ENDCHAR
STARTCHAR 98
ENCODING 98
SWIDTH 480 0
DWIDTH 5 0
BBX 4 7 0 1
BITMAP
80
80
e0
90
90
90
e0
ENDCHAR
STARTCHAR 99
ENCODING 99
SWIDTH 480 0
DWIDTH 5 0
BBX 4 5 0 1
BITMAP
60
90
80
90
60
ENDCHAR
STARTCHAR 100
ENCODING 100
SWIDTH 480 0
DWIDTH 5 0
BBX 4 7 0 1
BITMAP
10
10
70
90
90
90
70
ENDCHAR
STARTCHAR 101
ENCODING 101
SWIDTH 480 0
DWIDTH 5 0
BBX 4 5 0 1
BITMAP
60
90
f0
80
70
ENDCHAR
STARTCHAR 102
ENCODING 102
SWIDTH 480 0
DWIDTH 5 0
BBX 4 7 0 1
BITMAP
20
50
40
e0
40
40
40
ENDCHAR
STARTCHAR 103
ENCODING 103
SWIDTH 480 0
DWIDTH 5 0
BBX 4 6 0 0
BITMAP
70
90
90
70
10
e0
ENDCHAR
STARTCHAR 104
ENCODING 104
SWIDTH 480 0
DWIDTH 5 0
BBX 4 7 0 1
BITMAP
80
80
e0
90
90
90
90
ENDCHAR
STARTCHAR 105
ENCODING 105
SWIDTH 480 0
DWIDTH 5 0
BBX 3 7 1 1
BITMAP
40
00
c0
40
40
40
e0
ENDCHAR
STARTCHAR 106
ENCODING 106
SWIDTH 480 0
DWIDTH 5 0
BBX 4 8 0 0
BITMAP
10
00
70
10
10
10
10
e0
ENDCHAR
STARTCHAR 107
ENCODING 107
SWIDTH 480 0
DWIDTH 5 0
BBX 4 7 0 1
BITMAP
80
80
90
a0
c0
a0
90
ENDCHAR
STARTCHAR 108
ENCODING 108
SWIDTH 480 0
DWIDTH 5 0
BBX 3 7 0 1
BITMAP
c0
40
40
40
40
40
e0
ENDCHAR
STARTCHAR 109
ENCODING 109
SWIDTH 480 0
DWIDTH 5 0
BBX 4 5 0 1
BITMAP
90
f0
b0
90
90
ENDCHAR
STARTCHAR 110
ENCODING 110
SWIDTH 480 0
DWIDTH 5 0
BBX 4 5 0 1
BITMAP
e0
90
90
90
90
ENDCHAR
STARTCHAR 111
ENCODING 111
SWIDTH 480 0
DWIDTH 5 0
BBX 4 5 0 1
BITMAP
60
90
90
90
60
ENDCHAR
STARTCHAR 112
ENCODING 112
SWIDTH 480 0
DWIDTH 5 0
BBX 4 6 0 0
BITMAP
e0
90
90
e0
80
80
ENDCHAR
STARTCHAR 113
ENCODING 113
SWIDTH 480 0
DWIDTH 5 0
BBX 4 6 0 0
BITMAP
70
90
90
70
10
10
ENDCHAR
STARTCHAR 114
ENCODING 114
SWIDTH 480 0
DWIDTH 5 0
BBX 4 5 0 1
BITMAP
b0
c0
80
80
80
ENDCHAR
STARTCHAR 115
ENCODING 115
SWIDTH 480 0
DWIDTH 5 0
BBX 4 5 0 1
BITMAP
70
80
60
10
e0
ENDCHAR
STARTCHAR 116
ENCODING 116
SWIDTH 480 0
DWIDTH 5 0
BBX 3 7 0 1
BITMAP
40
40
e0
40
40
40
20
ENDCHAR
STARTCHAR 117
ENCODING 117
SWIDTH 480 0
DWIDTH 5 0
BBX 4 5 0 1
BITMAP
90
90
90
90
60
ENDCHAR
STARTCHAR 118
ENCODING 118
SWIDTH 480 0
DWIDTH 5 0
BBX 4 5 0 1
BITMAP
90
90
a0
c0
80
ENDCHAR
STARTCHAR 119
ENCODING 119
SWIDTH 480 0
DWIDTH 5 0
BBX 4 5 0 1
BITMAP
90
90
b0
f0
90
ENDCHAR
STARTCHAR 120
ENCODING 120
SWIDTH 480 0
DWIDTH 5 0
BBX 4 5 0 1
BITMAP
90
60
60
90
90
ENDCHAR
STARTCHAR 121
ENCODING 121
SWIDTH 480 0
DWIDTH 5 0
BBX 4 6 0 0
BITMAP
90
90
90
70
10
e0
ENDCHAR
STARTCHAR 122
ENCODING 122
SWIDTH 480 0
DWIDTH 5 0
BBX 4 5 0 1
BITMAP
f0
10
20
40
f0
ENDCHAR
STARTCHAR 123
ENCODING 123
SWIDTH 480 0
DWIDTH 5 0
BBX 3 9 1 0
BITMAP
20
40
40
40
80
40
40
40
20
ENDCHAR
STARTCHAR 124
ENCODING 124
SWIDTH 480 0
DWIDTH 5 0
BBX 1 9 2 0
BITMAP
80
80
80
80
00
80
80
80
80
ENDCHAR
STARTCHAR 125
ENCODING 125
SWIDTH 480 0
DWIDTH 5 0
BBX 3 9 1 0
BITMAP
80
40
40
40
20
40
40
40
80
ENDCHAR
STARTCHAR 126
ENCODING 126
SWIDTH 480 0
DWIDTH 5 0
BBX 4 2 0 5
BITMAP
50
a0
ENDCHAR
STARTCHAR 127
ENCODING 127
SWIDTH 480 0
DWIDTH 5 0
BBX 4 7 0 0
BITMAP
60
60
90
90
90
90
f0
ENDCHAR
STARTCHAR 128
ENCODING 128
SWIDTH 480 0
DWIDTH 5 0
BBX 4 8 0 0
BITMAP
70
80
80
80
80
70
20
60
ENDCHAR
STARTCHAR 129
ENCODING 129
SWIDTH 480 0
DWIDTH 5 0
BBX 4 7 0 1
BITMAP
50
00
90
90
90
90
60
ENDCHAR
STARTCHAR 130
ENCODING 130
SWIDTH 480 0
DWIDTH 5 0
BBX 4 7 0 1
BITMAP
20
40
60
90
e0
80
70
ENDCHAR
STARTCHAR 131
ENCODING 131
SWIDTH 480 0
DWIDTH 5 0
BBX 4 8 0 1
BITMAP
20
50
00
60
10
70
90
70
ENDCHAR
STARTCHAR 132
ENCODING 132
SWIDTH 480 0
DWIDTH 5 0
BBX 4 7 0 1
BITMAP
90
00
60
10
70
90
70
ENDCHAR
STARTCHAR 133
ENCODING 133
SWIDTH 480 0
DWIDTH 5 0
BBX 4 7 0 1
BITMAP
20
10
60
10
70
90
70
ENDCHAR
STARTCHAR 134
ENCODING 134
SWIDTH 480 0
DWIDTH 5 0
BBX 4 7 0 1
BITMAP
20
50
60
10
70
90
70
ENDCHAR
STARTCHAR 135
ENCODING 135
SWIDTH 480 0
DWIDTH 5 0
BBX 4 7 0 0
BITMAP
60
90
80
90
60
20
60
ENDCHAR
STARTCHAR 136
ENCODING 136
SWIDTH 480 0
DWIDTH 5 0
BBX 4 8 0 1
BITMAP
20
50
00
60
90
f0
80
70
ENDCHAR
STARTCHAR 137
ENCODING 137
SWIDTH 480 0
DWIDTH 5 0
BBX 4 7 0 1
BITMAP
90
00
60
90
f0
80
70
ENDCHAR
STARTCHAR 138
ENCODING 138
SWIDTH 480 0
DWIDTH 5 0
BBX 4 7 0 1
BITMAP
40
20
60
90
f0
80
70
ENDCHAR
STARTCHAR 139
ENCODING 139
SWIDTH 480 0
DWIDTH 5 0
BBX 3 7 0 1
BITMAP
a0
00
c0
40
40
40
e0
ENDCHAR
STARTCHAR 140
ENCODING 140
SWIDTH 480 0
DWIDTH 5 0
BBX 3 8 0 1
BITMAP
40
a0
00
c0
40
40
40
e0
ENDCHAR
STARTCHAR 141
ENCODING 141
SWIDTH 480 0
DWIDTH 5 0
BBX 3 7 0 1
BITMAP
80
40
c0
40
40
40
e0
ENDCHAR
STARTCHAR 142
ENCODING 142
SWIDTH 480 0
DWIDTH 5 0
BBX 4 9 0 1
BITMAP
90
00
60
90
90
f0
90
90
90
ENDCHAR
STARTCHAR 143
ENCODING 143
SWIDTH 480 0
DWIDTH 5 0
BBX 4 9 0 1
BITMAP
60
90
60
90
90
f0
90
90
90
ENDCHAR
STARTCHAR 144
ENCODING 144
SWIDTH 480 0
DWIDTH 5 0
BBX 4 9 0 1
BITMAP
20
40
f0
80
80
e0
80
80
f0
ENDCHAR
STARTCHAR 145
ENCODING 145
SWIDTH 480 0
DWIDTH 5 0
BBX 4 4 0 1
BITMAP
f0
30
60
f0
ENDCHAR
STARTCHAR 146
ENCODING 146
SWIDTH 480 0
DWIDTH 5 0
BBX 4 7 0 1
BITMAP
70
a0
a0
f0
a0
a0
b0
ENDCHAR
STARTCHAR 147
ENCODING 147
SWIDTH 480 0
DWIDTH 5 0
BBX 4 8 0 1
BITMAP
20
50
00
60
90
90
90
60
ENDCHAR
STARTCHAR 148
ENCODING 148
SWIDTH 480 0
DWIDTH 5 0
BBX 4 7 0 1
BITMAP
90
00
60
90
90
90
60
ENDCHAR
STARTCHAR 149
ENCODING 149
SWIDTH 480 0
DWIDTH 5 0
BBX 4 7 0 1
BITMAP
40
20
60
90
90
90
60
ENDCHAR
STARTCHAR 150
ENCODING 150
SWIDTH 480 0
DWIDTH 5 0
BBX 4 8 0 1
BITMAP
20
50
00
90
90
90
90
60
ENDCHAR
STARTCHAR 151
ENCODING 151
SWIDTH 480 0
DWIDTH 5 0
BBX 4 7 0 1
BITMAP
40
20
90
90
90
90
60
ENDCHAR
STARTCHAR 152
ENCODING 152
SWIDTH 480 0
DWIDTH 5 0
BBX 4 8 0 0
BITMAP
90
00
90
90
90
70
10
e0
ENDCHAR
STARTCHAR 153
ENCODING 153
SWIDTH 480 0
DWIDTH 5 0
BBX 4 7 0 1
BITMAP
90
00
90
90
90
90
60
ENDCHAR
STARTCHAR 154
ENCODING 154
SWIDTH 480 0
DWIDTH 5 0
BBX 4 9 0 1
BITMAP
90
00
90
90
90
90
90
90
60
ENDCHAR
STARTCHAR 155
ENCODING 155
SWIDTH 480 0
DWIDTH 5 0
BBX 4 9 0 0
BITMAP
20
20
70
80
80
80
70
20
20
ENDCHAR
STARTCHAR 156
ENCODING 156
SWIDTH 480 0
DWIDTH 5 0
BBX 4 7 0 1
BITMAP
20
50
40
60
40
E0
D0
ENDCHAR
STARTCHAR 157
ENCODING 157
SWIDTH 480 0
DWIDTH 5 0
BBX 3 7 0 1
BITMAP
a0
a0
40
e0
40
40
40
ENDCHAR
STARTCHAR 158
ENCODING 158
SWIDTH 480 0
DWIDTH 5 0
BBX 4 7 0 1
BITMAP
e0
90
90
e0
b0
a0
b0
ENDCHAR
STARTCHAR 159
ENCODING 159
SWIDTH 480 0
DWIDTH 5 0
BBX 4 10 0 0
BITMAP
10
20
20
20
70
20
20
20
a0
40
ENDCHAR
STARTCHAR 160
ENCODING 160
SWIDTH 480 0
DWIDTH 5 0
BBX 4 7 0 1
BITMAP
20
40
60
10
70
90
70
ENDCHAR
STARTCHAR 161
ENCODING 161
SWIDTH 480 0
DWIDTH 5 0
BBX 3 7 0 1
BITMAP
20
40
c0
40
40
40
e0
ENDCHAR
STARTCHAR 162
ENCODING 162
SWIDTH 480 0
DWIDTH 5 0
BBX 4 7 0 1
BITMAP
10
20
60
90
90
90
60
ENDCHAR
STARTCHAR 163
ENCODING 163
SWIDTH 480 0
DWIDTH 5 0
BBX 4 7 0 1
BITMAP
10
20
00
90
90
90
60
ENDCHAR
STARTCHAR 164
ENCODING 164
SWIDTH 480 0
DWIDTH 5 0
BBX 4 7 0 1
BITMAP
50
a0
e0
90
90
90
90
ENDCHAR
STARTCHAR 165
ENCODING 165
SWIDTH 480 0
DWIDTH 5 0
BBX 4 9 0 1
BITMAP
50
a0
90
d0
d0
b0
b0
90
90
ENDCHAR
STARTCHAR 166
ENCODING 166
SWIDTH 480 0
DWIDTH 5 0
BBX 4 6 0 2
BITMAP
70
20
50
b0
00
f0
ENDCHAR
STARTCHAR 167
ENCODING 167
SWIDTH 480 0
DWIDTH 5 0
BBX 4 6 0 2
BITMAP
60
90
90
60
00
F0
ENDCHAR
STARTCHAR 168
ENCODING 168
SWIDTH 480 0
DWIDTH 5 0
BBX 4 7 0 1
BITMAP
20
00
20
60
80
80
70
ENDCHAR
STARTCHAR 169
ENCODING 169
SWIDTH 480 0
DWIDTH 5 0
BBX 4 3 0 2
BITMAP
f0
80
80
ENDCHAR
STARTCHAR 170
ENCODING 170
SWIDTH 480 0
DWIDTH 5 0
BBX 4 3 0 2
BITMAP
f0
10
10
ENDCHAR
STARTCHAR 171
ENCODING 171
SWIDTH 480 0
DWIDTH 5 0
BBX 4 9 0 1
BITMAP
80
80
90
a0
40
b0
10
20
30
ENDCHAR
STARTCHAR 172
ENCODING 172
SWIDTH 480 0
DWIDTH 5 0
BBX 4 9 0 1
BITMAP
80
80
90
A0
40
90
50
70
10
ENDCHAR
STARTCHAR 173
ENCODING 173
SWIDTH 480 0
DWIDTH 5 0
BBX 3 8 0 0
BITMAP
40
00
40
40
e0
e0
e0
40
ENDCHAR
STARTCHAR 174
ENCODING 174
SWIDTH 480 0
DWIDTH 5 0
BBX 4 3 0 3
BITMAP
50
A0
50
ENDCHAR
STARTCHAR 175
ENCODING 175
SWIDTH 480 0
DWIDTH 5 0
BBX 4 3 0 3
BITMAP
A0
50
A0
ENDCHAR
STARTCHAR 176
ENCODING 176
SWIDTH 480 0
DWIDTH 5 0
BBX 5 10 0 0
BITMAP
a8
50
a8
50
a8
50
a8
50
a8
50
ENDCHAR
STARTCHAR 177
ENCODING 177
SWIDTH 480 0
DWIDTH 5 0
BBX 5 10 0 0
BITMAP
d8
a8
70
a8
d8
a8
70
a8
d8
a8
ENDCHAR
STARTCHAR 178
ENCODING 178
SWIDTH 480 0
DWIDTH 5 0
BBX 5 10 0 0
BITMAP
d8
f8
70
f8
d8
f8
70
f8
d8
f8
ENDCHAR
STARTCHAR 179
ENCODING 179
SWIDTH 480 0
DWIDTH 5 0
BBX 1 10 2 0
BITMAP
80
80
80
80
80
80
80
80
80
80
ENDCHAR
STARTCHAR 180
ENCODING 180
SWIDTH 480 0
DWIDTH 5 0
BBX 3 10 0 0
BITMAP
20
20
20
20
20
E0
20
20
20
20
ENDCHAR
STARTCHAR 181
ENCODING 181
SWIDTH 480 0
DWIDTH 5 0
BBX 3 10 0 0
BITMAP
20
20
20
E0
20
E0
20
20
20
20
ENDCHAR
STARTCHAR 182
ENCODING 182
SWIDTH 480 0
DWIDTH 5 0
BBX 4 10 0 0
BITMAP
50
50
50
50
50
D0
50
50
50
50
ENDCHAR
STARTCHAR 183
ENCODING 183
SWIDTH 480 0
DWIDTH 5 0
BBX 4 5 0 0
BITMAP
F0
50
50
50
50
ENDCHAR
STARTCHAR 184
ENCODING 184
SWIDTH 480 0
DWIDTH 5 0
BBX 3 7 0 0
BITMAP
E0
20
E0
20
20
20
20
ENDCHAR
STARTCHAR 185
ENCODING 185
SWIDTH 480 0
DWIDTH 5 0
BBX 4 10 0 0
BITMAP
50
50
50
D0
10
D0
50
50
50
50
ENDCHAR
STARTCHAR 186
ENCODING 186
SWIDTH 480 0
DWIDTH 5 0
BBX 3 10 1 0
BITMAP
A0
A0
A0
A0
A0
A0
A0
A0
A0
A0
ENDCHAR
STARTCHAR 187
ENCODING 187
SWIDTH 480 0
DWIDTH 5 0
BBX 4 7 0 0
BITMAP
F0
10
D0
50
50
50
50
ENDCHAR
STARTCHAR 188
ENCODING 188
SWIDTH 480 0
DWIDTH 5 0
BBX 4 6 0 4
BITMAP
50
50
50
D0
10
F0
ENDCHAR
STARTCHAR 189
ENCODING 189
SWIDTH 480 0
DWIDTH 5 0
BBX 4 6 0 4
BITMAP
50
50
50
50
50
F0
ENDCHAR
STARTCHAR 190
ENCODING 190
SWIDTH 480 0
DWIDTH 5 0
BBX 3 6 0 4
BITMAP
20
20
20
E0
20
E0
ENDCHAR
STARTCHAR 191
ENCODING 191
SWIDTH 480 0
DWIDTH 5 0
BBX 3 5 0 0
BITMAP
E0
20
20
20
20
ENDCHAR
STARTCHAR 192
ENCODING 192
SWIDTH 480 0
DWIDTH 5 0
BBX 3 6 2 4
BITMAP
80
80
80
80
80
E0
ENDCHAR
STARTCHAR 193
ENCODING 193
SWIDTH 480 0
DWIDTH 5 0
BBX 5 6 0 4
BITMAP
20
20
20
20
20
F8
ENDCHAR
STARTCHAR 194
ENCODING 194
SWIDTH 480 0
DWIDTH 5 0
BBX 5 5 0 0
BITMAP
F8
20
20
20
20
ENDCHAR
STARTCHAR 195
ENCODING 195
SWIDTH 480 0
DWIDTH 5 0
BBX 3 10 2 0
BITMAP
80
80
80
80
80
E0
80
80
80
80
ENDCHAR
STARTCHAR 196
ENCODING 196
SWIDTH 480 0
DWIDTH 5 0
BBX 5 1 0 4
BITMAP
F8
ENDCHAR
STARTCHAR 197
ENCODING 197
SWIDTH 480 0
DWIDTH 5 0
BBX 5 10 0 0
BITMAP
20
20
20
20
20
F8
20
20
20
20
ENDCHAR
STARTCHAR 198
ENCODING 198
SWIDTH 480 0
DWIDTH 5 0
BBX 3 10 2 0
BITMAP
80
80
80
E0
80
E0
80
80
80
80
ENDCHAR
STARTCHAR 199
ENCODING 199
SWIDTH 480 0
DWIDTH 5 0
BBX 4 10 1 0
BITMAP
A0
A0
A0
A0
A0
B0
A0
A0
A0
A0
ENDCHAR
STARTCHAR 200
ENCODING 200
SWIDTH 480 0
DWIDTH 5 0
BBX 4 6 1 4
BITMAP
A0
A0
A0
B0
80
F0
ENDCHAR
STARTCHAR 201
ENCODING 201
SWIDTH 480 0
DWIDTH 5 0
BBX 4 7 1 0
BITMAP
F0
80
B0
A0
A0
A0
A0
ENDCHAR
STARTCHAR 202
ENCODING 202
SWIDTH 480 0
DWIDTH 5 0
BBX 5 6 0 4
BITMAP
50
50
50
D8
00
F8
ENDCHAR
STARTCHAR 203
ENCODING 203
SWIDTH 480 0
DWIDTH 5 0
BBX 5 7 0 0
BITMAP
F8
00
D8
50
50
50
50
ENDCHAR
STARTCHAR 204
ENCODING 204
SWIDTH 480 0
DWIDTH 5 0
BBX 4 10 1 0
BITMAP
A0
A0
A0
B0
80
B0
A0
A0
A0
A0
ENDCHAR
STARTCHAR 205
ENCODING 205
SWIDTH 480 0
DWIDTH 5 0
BBX 5 3 0 4
BITMAP
F8
00
F8
ENDCHAR
STARTCHAR 206
ENCODING 206
SWIDTH 480 0
DWIDTH 5 0
BBX 5 10 0 0
BITMAP
50
50
50
D8
00
D8
50
50
50
50
ENDCHAR
STARTCHAR 207
ENCODING 207
SWIDTH 480 0
DWIDTH 5 0
BBX 5 6 0 4
BITMAP
20
20
20
F8
00
F8
ENDCHAR
STARTCHAR 208
ENCODING 208
SWIDTH 480 0
DWIDTH 5 0
BBX 5 6 0 4
BITMAP
50
50
50
50
50
F8
ENDCHAR
STARTCHAR 209
ENCODING 209
SWIDTH 480 0
DWIDTH 5 0
BBX 5 7 0 0
BITMAP
F8
00
F8
20
20
20
20
ENDCHAR
STARTCHAR 210
ENCODING 210
SWIDTH 480 0
DWIDTH 5 0
BBX 5 5 0 0
BITMAP
F8
50
50
50
50
ENDCHAR
STARTCHAR 211
ENCODING 211
SWIDTH 480 0
DWIDTH 5 0
BBX 4 6 1 4
BITMAP
A0
A0
A0
A0
A0
F0
ENDCHAR
STARTCHAR 212
ENCODING 212
SWIDTH 480 0
DWIDTH 5 0
BBX 3 6 2 4
BITMAP
80
80
80
E0
80
E0
ENDCHAR
STARTCHAR 213
ENCODING 213
SWIDTH 480 0
DWIDTH 5 0
BBX 3 7 2 0
BITMAP
E0
80
E0
80
80
80
80
ENDCHAR
STARTCHAR 214
ENCODING 214
SWIDTH 480 0
DWIDTH 5 0
BBX 4 5 1 0
BITMAP
F0
A0
A0
A0
A0
ENDCHAR
STARTCHAR 215
ENCODING 215
SWIDTH 480 0
DWIDTH 5 0
BBX 5 10 0 0
BITMAP
50
50
50
50
50
F8
50
50
50
50
ENDCHAR
STARTCHAR 216
ENCODING 216
SWIDTH 480 0
DWIDTH 5 0
BBX 5 10 0 0
BITMAP
20
20
20
F8
20
F8
20
20
20
20
ENDCHAR
STARTCHAR 217
ENCODING 217
SWIDTH 480 0
DWIDTH 5 0
BBX 3 6 0 4
BITMAP
20
20
20
20
20
E0
ENDCHAR
STARTCHAR 218
ENCODING 218
SWIDTH 480 0
DWIDTH 5 0
BBX 3 5 2 0
BITMAP
E0
80
80
80
80
ENDCHAR
STARTCHAR 219
ENCODING 219
SWIDTH 480 0
DWIDTH 5 0
BBX 5 10 0 0
BITMAP
F8
F8
F8
F8
F8
F8
F8
F8
F8
F8
ENDCHAR
STARTCHAR 220
ENCODING 220
SWIDTH 480 0
DWIDTH 5 0
BBX 5 5 0 0
BITMAP
F8
F8
F8
F8
F8
ENDCHAR
STARTCHAR 221
ENCODING 221
SWIDTH 480 0
DWIDTH 5 0
BBX 3 10 0 0
BITMAP
E0
E0
E0
E0
E0
E0
E0
E0
E0
E0
ENDCHAR
STARTCHAR 222
ENCODING 222
SWIDTH 480 0
DWIDTH 5 0
BBX 2 10 3 0
BITMAP
C0
C0
C0
C0
C0
C0
C0
C0
C0
C0
ENDCHAR
STARTCHAR 223
ENCODING 223
SWIDTH 480 0
DWIDTH 5 0
BBX 5 5 0 5
BITMAP
F8
F8
F8
F8
F8
ENDCHAR
STARTCHAR 224
ENCODING 224
SWIDTH 480 0
DWIDTH 5 0
BBX 4 5 0 2
BITMAP
50
A0
A0
A0
50
ENDCHAR
STARTCHAR 225
ENCODING 225
SWIDTH 480 0
DWIDTH 5 0
BBX 4 8 0 1
BITMAP
60
90
A0
90
90
A0
80
80
ENDCHAR
STARTCHAR 226
ENCODING 226
SWIDTH 480 0
DWIDTH 5 0
BBX 4 8 0 1
BITMAP
F0
90
80
80
80
80
80
80
ENDCHAR
STARTCHAR 227
ENCODING 227
SWIDTH 480 0
DWIDTH 5 0
BBX 5 5 0 2
BITMAP
F8
50
50
50
50
ENDCHAR
STARTCHAR 228
ENCODING 228
SWIDTH 480 0
DWIDTH 5 0
BBX 3 7 1 2
BITMAP
E0
80
40
20
40
80
E0
ENDCHAR
STARTCHAR 229
ENCODING 229
SWIDTH 480 0
DWIDTH 5 0
BBX 4 5 0 2
BITMAP
70
A0
A0
A0
40
ENDCHAR
STARTCHAR 230
ENCODING 230
SWIDTH 480 0
DWIDTH 5 0
BBX 4 8 0 0
BITMAP
50
50
50
50
50
60
40
80
ENDCHAR
STARTCHAR 231
ENCODING 231
SWIDTH 480 0
DWIDTH 5 0
BBX 4 6 0 2
BITMAP
50
A0
20
20
20
20
ENDCHAR
STARTCHAR 232
ENCODING 232
SWIDTH 480 0
DWIDTH 5 0
BBX 5 8 0 1
BITMAP
F8
20
70
88
88
70
20
F8
ENDCHAR
STARTCHAR 233
ENCODING 233
SWIDTH 480 0
DWIDTH 5 0
BBX 4 7 0 2
BITMAP
60
90
90
F0
90
90
60
ENDCHAR
STARTCHAR 234
ENCODING 234
SWIDTH 480 0
DWIDTH 5 0
BBX 5 6 0 2
BITMAP
70
88
88
50
50
D8
ENDCHAR
STARTCHAR 235
ENCODING 235
SWIDTH 480 0
DWIDTH 5 0
BBX 4 7 0 2
BITMAP
60
80
40
60
90
90
60
ENDCHAR
STARTCHAR 236
ENCODING 236
SWIDTH 480 0
DWIDTH 5 0
BBX 5 5 0 2
BITMAP
70
A8
A8
A8
70
ENDCHAR
STARTCHAR 237
ENCODING 237
SWIDTH 480 0
DWIDTH 5 0
BBX 5 9 0 0
BITMAP
08
08
70
B8
A8
E8
70
80
80
ENDCHAR
STARTCHAR 238
ENCODING 238
SWIDTH 480 0
DWIDTH 5 0
BBX 4 9 0 1
BITMAP
30
40
80
80
E0
80
80
40
30
ENDCHAR
STARTCHAR 239
ENCODING 239
SWIDTH 480 0
DWIDTH 5 0
BBX 4 8 0 1
BITMAP
60
90
90
90
90
90
90
90
ENDCHAR
STARTCHAR 240
ENCODING 240
SWIDTH 480 0
DWIDTH 5 0
BBX 5 5 0 2
BITMAP
f8
00
f8
00
f8
ENDCHAR
STARTCHAR 241
ENCODING 241
SWIDTH 480 0
DWIDTH 5 0
BBX 3 5 1 4
BITMAP
40
E0
40
00
E0
ENDCHAR
STARTCHAR 242
ENCODING 242
SWIDTH 480 0
DWIDTH 5 0
BBX 3 7 1 2
BITMAP
80
40
20
40
80
00
e0
ENDCHAR
STARTCHAR 243
ENCODING 243
SWIDTH 480 0
DWIDTH 5 0
BBX 3 7 1 2
BITMAP
20
40
80
40
20
00
E0
ENDCHAR
STARTCHAR 244
ENCODING 244
SWIDTH 480 0
DWIDTH 5 0
BBX 3 8 1 1
BITMAP
40
A0
A0
80
80
80
80
80
ENDCHAR
STARTCHAR 245
ENCODING 245
SWIDTH 480 0
DWIDTH 5 0
BBX 3 8 0 1
BITMAP
20
20
20
20
20
A0
A0
40
ENDCHAR
STARTCHAR 246
ENCODING 246
SWIDTH 480 0
DWIDTH 5 0
BBX 3 7 0 2
BITMAP
40
40
00
E0
00
40
40
ENDCHAR
STARTCHAR 247
ENCODING 247
SWIDTH 480 0
DWIDTH 5 0
BBX 4 5 0 3
BITMAP
50
A0
00
50
A0
ENDCHAR
STARTCHAR 248
ENCODING 248
SWIDTH 480 0
DWIDTH 5 0
BBX 3 4 1 6
BITMAP
E0
40
A0
40
ENDCHAR
STARTCHAR 249
ENCODING 249
SWIDTH 480 0
DWIDTH 5 0
BBX 2 2 1 3
BITMAP
C0
C0
ENDCHAR
STARTCHAR 250
ENCODING 250
SWIDTH 480 0
DWIDTH 5 0
BBX 2 1 1 3
BITMAP
C0
ENDCHAR
STARTCHAR 251
ENCODING 251
SWIDTH 480 0
DWIDTH 5 0
BBX 5 10 0 0
BITMAP
38
20
20
20
20
20
20
A0
60
20
ENDCHAR
STARTCHAR 252
ENCODING 252
SWIDTH 480 0
DWIDTH 5 0
BBX 4 4 0 3
BITMAP
A0
D0
90
90
ENDCHAR
STARTCHAR 253
ENCODING 253
SWIDTH 480 0
DWIDTH 5 0
BBX 3 4 0 3
BITMAP
C0
20
40
E0
ENDCHAR
STARTCHAR 254
ENCODING 254
SWIDTH 480 0
DWIDTH 5 0
BBX 4 4 0 2
BITMAP
f0
f0
f0
f0
ENDCHAR
STARTCHAR 255
ENCODING 255
SWIDTH 480 0
DWIDTH 5 0
BBX 0 0 0 0
BITMAP
ENDCHAR
ENDFONT
